<svg width="21" height="25" viewBox="0 0 21 25" fill="none" xmlns="http://www.w3.org/2000/svg">
<g clip-path="url(#clip0_2_2824)">
<path d="M11.9299 17.4709V15.0416C11.9299 14.9235 11.8919 14.8265 11.816 14.7506C11.74 14.6747 11.643 14.6367 11.5249 14.6367H9.0951C8.97699 14.6367 8.87997 14.6747 8.80404 14.7506C8.7281 14.8265 8.69014 14.9235 8.69014 15.0416V17.4709C8.69014 17.5889 8.7281 17.6859 8.80404 17.7619C8.87997 17.8378 8.97699 17.8757 9.0951 17.8757H11.5249C11.643 17.8757 11.74 17.8378 11.816 17.7619C11.8919 17.6859 11.9299 17.5889 11.9299 17.4709ZM15.1696 8.96844C15.1696 8.22617 14.9355 7.53872 14.4672 6.9061C13.999 6.27348 13.4147 5.78426 12.7145 5.43843C12.0142 5.09259 11.2971 4.91968 10.5631 4.91968C8.51297 4.91968 6.94794 5.818 5.86803 7.61464C5.74148 7.81708 5.77523 7.99421 5.96927 8.14604L7.63976 9.41128C7.69882 9.46189 7.77897 9.48719 7.88021 9.48719C8.0152 9.48719 8.12066 9.43658 8.19659 9.33536C8.64374 8.76179 9.00652 8.37378 9.28493 8.17134C9.57178 7.9689 9.93456 7.86769 10.3733 7.86769C10.7782 7.86769 11.1389 7.97734 11.4553 8.19665C11.7717 8.41596 11.9299 8.66479 11.9299 8.94314C11.9299 9.26367 11.8455 9.52093 11.6768 9.71494C11.508 9.90894 11.2212 10.0987 10.8162 10.2843C10.2847 10.5205 9.79747 10.8853 9.35454 11.3787C8.9116 11.8722 8.69014 12.4015 8.69014 12.9666V13.4221C8.69014 13.5402 8.7281 13.6372 8.80404 13.7131C8.87997 13.789 8.97699 13.827 9.0951 13.827H11.5249C11.643 13.827 11.74 13.789 11.816 13.7131C11.8919 13.6372 11.9299 13.5402 11.9299 13.4221C11.9299 13.2618 12.0206 13.0531 12.202 12.7958C12.3833 12.5385 12.6132 12.3298 12.8917 12.1695C13.1616 12.0177 13.3683 11.8975 13.5118 11.8089C13.6552 11.7203 13.8492 11.5727 14.0939 11.3661C14.3386 11.1594 14.5263 10.957 14.6571 10.7588C14.7878 10.5605 14.9059 10.3054 15.0114 9.99329C15.1169 9.6812 15.1696 9.33958 15.1696 8.96844ZM20.0292 11.3977C20.0292 13.1606 19.5947 14.7864 18.7257 16.2752C17.8567 17.764 16.6777 18.9428 15.1886 19.8115C13.6995 20.6803 12.0733 21.1147 10.31 21.1147C8.54671 21.1147 6.92052 20.6803 5.43143 19.8115C3.94234 18.9428 2.76329 17.764 1.8943 16.2752C1.02532 14.7864 0.59082 13.1606 0.59082 11.3977C0.59082 9.6348 1.02532 8.00897 1.8943 6.52021C2.76329 5.03144 3.94234 3.85266 5.43143 2.98386C6.92052 2.11506 8.54671 1.68066 10.31 1.68066C12.0733 1.68066 13.6995 2.11506 15.1886 2.98386C16.6777 3.85266 17.8567 5.03144 18.7257 6.52021C19.5947 8.00897 20.0292 9.6348 20.0292 11.3977Z" fill="#1DE9B6"/>
</g>
<defs>
<clipPath id="clip0_2_2824">
<rect width="19.44" height="23.99" fill="white" transform="translate(0.590088 0.0605469)"/>
</clipPath>
</defs>
</svg>
