<svg width="18" height="19" viewBox="0 0 18 19" fill="none" xmlns="http://www.w3.org/2000/svg">
<path d="M8.44006 2.83685C11.0552 2.83685 13.1868 4.96821 13.1868 7.58317C13.1868 8.32478 12.8863 9.17559 12.478 10.1047C12.0698 11.0337 11.5447 12.0196 11.0112 12.9393C9.9441 14.7787 8.86858 16.3177 8.86858 16.3177L8.44006 16.944L8.01154 16.3177C8.01154 16.3177 6.93601 14.7787 5.86893 12.9393C5.33539 12.0196 4.81028 11.0337 4.40207 10.1047C3.99385 9.17559 3.69336 8.32478 3.69336 7.58317C3.69336 4.96821 5.82489 2.83685 8.44006 2.83685ZM8.44006 3.89158C6.39502 3.89158 4.74818 5.5383 4.74818 7.58317C4.74818 8.00652 4.9751 8.80469 5.358 9.67617C5.7409 10.5476 6.27062 11.5133 6.7919 12.4119C7.62109 13.8412 8.13482 14.5972 8.44006 15.0487C8.7453 14.5972 9.25903 13.8412 10.0882 12.4119C10.6095 11.5133 11.1392 10.5476 11.5221 9.67617C11.905 8.80469 12.1319 8.00652 12.1319 7.58317C12.1319 5.5383 10.4851 3.89158 8.44006 3.89158ZM8.44006 6.52843C9.02262 6.52843 9.49488 7.00066 9.49488 7.58317C9.49488 8.16568 9.02262 8.63791 8.44006 8.63791C7.8575 8.63791 7.38524 8.16568 7.38524 7.58317C7.38524 7.00066 7.8575 6.52843 8.44006 6.52843Z" fill="white"/>
</svg>
