<svg width="17" height="19" viewBox="0 0 17 19" fill="none" xmlns="http://www.w3.org/2000/svg">
<path d="M4.57676 2.83685C4.85282 2.83685 5.12579 2.93652 5.35139 3.11701L5.38436 3.13349L5.40084 3.14997L7.51048 5.32537L7.55993 5.37481L7.54344 5.39129C8.01066 5.82677 8.00387 6.56238 7.55993 7.00636L6.5051 8.0611C6.66728 8.43279 7.10932 9.38018 7.97197 10.2035C8.84081 11.0328 9.74974 11.5044 10.1311 11.6868L11.1694 10.6485L11.1859 10.632C11.6236 10.1943 12.3963 10.1943 12.834 10.632L12.8505 10.665L14.9931 12.8074C15.4309 13.2451 15.4309 14.0013 14.9931 14.439L13.3614 16.0705L13.345 16.087L13.3285 16.1035C12.8337 16.5276 12.1405 16.6798 11.499 16.466H11.4825C10.2448 15.9818 7.74089 14.8836 5.49973 12.6426C3.26723 10.4103 2.12271 7.94046 1.676 6.66027C1.67484 6.65698 1.67712 6.64709 1.676 6.64379C1.45504 6.0362 1.61287 5.33401 2.121 4.86392L2.10452 4.84744L3.75268 3.14997L3.76916 3.13349L3.80212 3.11701C4.02772 2.93652 4.30069 2.83685 4.57676 2.83685ZM4.57676 3.89158C4.53812 3.89158 4.49949 3.91054 4.46139 3.94103L2.86267 5.57257L2.84619 5.58905L2.82971 5.60553C2.64268 5.76582 2.58446 6.08323 2.66489 6.29771C3.06441 7.44628 4.15483 9.8146 6.2414 11.901C8.31096 13.9704 10.6329 14.9914 11.8287 15.4607C12.1365 15.5634 12.3927 15.5212 12.6363 15.3124L14.2515 13.6974C14.3411 13.6077 14.3411 13.6387 14.2515 13.549L12.0924 11.3901C12.0027 11.3005 12.0172 11.3005 11.9275 11.3901L10.609 12.7085L10.3618 12.9557L10.0322 12.8074C10.0322 12.8074 8.58739 12.1959 7.36215 11.077L7.24678 10.9781C5.97456 9.76384 5.36787 8.1435 5.36787 8.1435L5.2525 7.81389L5.49973 7.58317L6.81825 6.26475C6.88306 6.19995 6.84706 6.14609 6.85122 6.14938L6.83474 6.1329L6.80177 6.09994L4.69213 3.94103C4.65402 3.91054 4.61539 3.89158 4.57676 3.89158Z" fill="white"/>
</svg>
