<svg width="81" height="80" viewBox="0 0 81 80" fill="none" xmlns="http://www.w3.org/2000/svg">
<rect x="0.330078" width="80" height="79.99" rx="39.995" fill="#0091EA"/>
<path d="M40.3201 27.0376C48.0804 27.0376 54.3965 33.3532 54.3965 41.1129C54.3965 48.8727 48.0804 55.1882 40.3201 55.1882C32.5597 55.1882 26.2437 48.8727 26.2437 41.1129C26.2437 33.3532 32.5597 27.0376 40.3201 27.0376ZM40.3201 29.3835C40.0001 29.3835 39.6804 29.4319 39.367 29.4568L41.9697 29.6401L42.5928 32.3525L39.0737 33.0123L38.1206 31.6927L36.1045 32.1326L36.801 35.2482L32.1088 37.4841L28.9563 39.9766L30.0927 42.2858H34.4549L39.1837 45.8413L37.9373 50.5331L39.2204 52.769C39.5805 52.802 39.9511 52.8423 40.3201 52.8423C42.1287 52.8423 43.8509 52.4328 45.3788 51.706L47.2483 45.8413C47.2483 45.8413 46.3841 43.7154 46.2586 43.7154C46.133 43.7154 43.8025 44.1186 43.8025 44.1186L41.5298 42.2492L42.6661 38.7304L44.6823 37.2275L46.7351 36.9343L48.6413 38.1072L49.4477 36.6411L46.2952 35.6147L43.7659 36.4211L43.5826 34.0019L44.609 33.1222L45.8553 33.6721L45.6354 31.3262L46.5885 31.2162C44.7758 30.0702 42.6293 29.3835 40.3201 29.3835ZM39.0004 29.4568C38.0541 29.5614 37.1517 29.7649 36.2878 30.0799L37.1675 30.2265L39.0004 29.4568ZM28.663 42.0293C29.0322 46.8473 32.2624 50.8573 36.691 52.2925L33.3552 48.1872H31.9989L29.7994 45.768V43.3488L28.663 42.0293Z" fill="white"/>
</svg>
