<svg width="20" height="21" viewBox="0 0 20 21" fill="none" xmlns="http://www.w3.org/2000/svg">
<path d="M4.72035 4.30632H15.2795C15.9207 4.30632 16.4527 4.83831 16.4527 5.47956V16.0387C16.4527 16.6799 15.9207 17.2119 15.2795 17.2119H4.72035C4.07911 17.2119 3.54712 16.6799 3.54712 16.0387V5.47956C3.54712 4.83831 4.07911 4.30632 4.72035 4.30632ZM4.72035 5.47956V16.0387H10.4032V12.079H8.86334V10.3192H10.4032V8.99926C10.4032 7.48403 11.3248 6.67112 12.6764 6.67112C13.324 6.67112 13.8888 6.70441 14.0512 6.72612V8.32099H13.098C12.363 8.32099 12.2364 8.66988 12.2364 9.18258V10.3192H13.9779L13.7579 12.079H12.2364V16.0387H15.2795V5.47956H4.72035Z" fill="white"/>
</svg>
