<svg width="20" height="21" viewBox="0 0 20 21" fill="none" xmlns="http://www.w3.org/2000/svg">
<path d="M14.9881 5.77463C16.3115 7.09921 17.0401 8.86024 17.0401 10.7327C17.0383 14.5968 13.8935 17.7405 10.03 17.7405H10.0271C8.85386 17.7399 7.7006 17.446 6.67695 16.8875L2.96069 17.8618L3.95501 14.2301C3.34145 13.1678 3.01884 11.9617 3.01936 10.7269C3.02119 6.86339 6.16597 3.7197 10.0294 3.7197C11.9049 3.72029 13.6647 4.45004 14.9881 5.77463ZM10.0294 16.5567C13.2412 16.5567 15.8546 13.9439 15.8551 10.7321C15.8557 9.17587 15.2503 7.71281 14.1504 6.61173C13.0505 5.51065 11.5875 4.90408 10.0312 4.9035C6.81767 4.9035 4.20374 7.51571 4.20253 10.7274C4.20253 11.828 4.5105 12.8997 5.09364 13.8271L5.23208 14.0477L4.64374 16.1971L6.84883 15.6187L7.06177 15.7448C7.95637 16.2757 8.98177 16.5562 10.0271 16.5567H10.0295L10.0294 16.5567ZM13.2253 12.1946C13.4007 12.282 13.5175 12.326 13.5615 12.3999C13.6055 12.4726 13.6055 12.8234 13.4594 13.2323C13.3139 13.6412 12.6141 14.0143 12.2774 14.0647C11.9752 14.1098 11.5934 14.1286 11.1739 13.9955C10.9199 13.9145 10.5932 13.8066 10.1755 13.6265C8.418 12.8679 7.27057 11.0994 7.18317 10.9826C7.09576 10.8659 6.46808 10.0329 6.46808 9.17114C6.46808 8.30936 6.92095 7.88583 7.0811 7.71046C7.24124 7.53507 7.43131 7.49107 7.54804 7.49107C7.66478 7.49107 7.78159 7.49162 7.88359 7.49694C7.99094 7.50222 8.13584 7.45587 8.27783 7.79721C8.42386 8.14746 8.77408 9.00982 8.81807 9.09723C8.86207 9.18463 8.8914 9.28729 8.83274 9.40403C8.77408 9.52073 8.74474 9.59406 8.65734 9.69613C8.56993 9.7982 8.47314 9.92436 8.39453 10.003C8.30654 10.0903 8.21562 10.1849 8.31772 10.3602C8.41976 10.5356 8.77118 11.1093 9.29206 11.5733C9.9608 12.1699 10.5252 12.3553 10.7005 12.4427C10.8759 12.5301 10.978 12.5155 11.0801 12.3987C11.1821 12.282 11.5177 11.8878 11.6344 11.7124C11.7512 11.5376 11.8679 11.5663 12.0286 11.625C12.1889 11.683 13.0499 12.1071 13.2253 12.1946Z" fill="white"/>
</svg>
